# xmcd
#
# Track frame offsets:
#	150
#	19965
#	32585
#	43905
#	54945
#	72855
#	85912
#	100610
#	113130
#	131440
#	142830
#	158812
#	173802
#	186847
#	197820
#	210272
#	222035
#	234795
#	246492
#	260225
#
# Disc length: 3619 seconds
#
# Revision: 6
# Processed by: cddbd v1.5.2PL0 Copyright (c) Steve Scherf et al.
# Submitted via: audiograbber 1.83.01
#
DISCID=120e2114
DTITLE=Marty Robbins - All-Time Greatest Hits
DYEAR=1991
DGENRE=Country
TTITLE0=El Paso
TTITLE1=Streets of Laredo
TTITLE2=Ribbon of Darkness
TTITLE3=Love Is Blue
TTITLE4=Big Iron
TTITLE5=Devil Woman
TTITLE6=Don't Worry
TTITLE7=Tonight Carmen
TTITLE8=You Gave Me a Mountain
TTITLE9=Kaw-liga
TTITLE10=My Woman, My Woman, My Wife
TTITLE11=Padre
TTITLE12=The Hanging Tree
TTITLE13=Red River Valley
TTITLE14=Joli Girl
TTITLE15=The Girl With Gardenias in Her Hair
TTITLE16=It's a Sin
TTITLE17=Maria (if I Could)
TTITLE18=I Walk Alone
TTITLE19=Aloha Oe (farewell to Thee)
EXTD=0\n\n\nColumbia Records (Sony]\n
EXTT0=
EXTT1=
EXTT2=
EXTT3=
EXTT4=
EXTT5=
EXTT6=
EXTT7=
EXTT8=
EXTT9=
EXTT10=
EXTT11=
EXTT12=
EXTT13=
EXTT14=
EXTT15=
EXTT16=
EXTT17=
EXTT18=
EXTT19=
PLAYORDER=
